<svg width="151" height="56" viewBox="0 0 151 56" fill="none" xmlns="http://www.w3.org/2000/svg">
<g clip-path="url(#clip0_13281_4485)">
<path fill-rule="evenodd" clip-rule="evenodd" d="M7.40114 56.1838C3.34285 56.1766 0.00796645 52.8417 0.000732422 48.7834V7.21653C0.00796645 3.15823 3.34285 -0.176665 7.40114 -0.183899H142.685C146.743 -0.176665 150.078 3.15823 150.085 7.21653V48.7761C150.078 52.8344 146.743 56.1693 142.685 56.1765H7.40114V56.1838Z" fill="#015A75"/>
<path fill-rule="evenodd" clip-rule="evenodd" d="M7.40117 0.973511C3.97947 0.980745 1.1582 3.79479 1.1582 7.21649V48.7761C1.16544 52.1978 3.97947 55.0191 7.40117 55.0191H50.8777V0.973511H7.40117ZM109.755 38.5906L110.681 37.2884C111.347 37.9829 112.273 38.3735 113.235 38.3735C114.175 38.3735 114.631 37.9395 114.631 37.4837C114.631 36.8978 113.886 36.7242 113.004 36.5071C111.687 36.2106 110.009 35.8489 110.009 34.0186C110.009 32.6803 111.166 31.5735 113.054 31.5735C114.335 31.5735 115.391 31.9569 116.186 32.6948L115.232 33.9463C114.588 33.3748 113.756 33.0637 112.895 33.071C112.164 33.071 111.752 33.3965 111.752 33.874C111.752 34.3948 112.49 34.5612 113.351 34.7637C114.667 35.0748 116.36 35.4727 116.36 37.2957C116.36 38.7642 115.311 39.871 113.148 39.871C111.607 39.8565 110.493 39.3501 109.755 38.5906ZM102.435 38.5906L103.361 37.2884C104.026 37.9829 104.952 38.3735 105.914 38.3735C106.855 38.3735 107.31 37.9395 107.31 37.4837C107.31 36.8978 106.565 36.7242 105.69 36.5071C104.373 36.2106 102.695 35.8489 102.695 34.0186C102.695 32.6803 103.852 31.5735 105.741 31.5735C107.014 31.5735 108.077 31.9569 108.873 32.6948L107.925 33.9463C107.281 33.3748 106.449 33.0637 105.589 33.071C104.858 33.071 104.446 33.3965 104.446 33.874C104.446 34.3948 105.184 34.5612 106.044 34.7637C107.361 35.0748 109.054 35.4727 109.054 37.2957C109.054 38.7642 108.005 39.871 105.842 39.871C104.294 39.8565 103.187 39.3501 102.435 38.5906ZM75.7772 38.5906L76.7032 37.2884C77.3687 37.9829 78.2946 38.3735 79.2568 38.3735C80.1972 38.3735 80.6529 37.9395 80.6529 37.4837C80.6529 36.8978 79.9078 36.7242 79.0253 36.5071C77.7087 36.2106 76.0304 35.8489 76.0304 34.0186C76.0304 32.6803 77.1878 31.5735 79.0759 31.5735C80.3563 31.5735 81.4125 31.9569 82.2083 32.6948L81.2534 33.9463C80.6095 33.3748 79.7776 33.0637 78.9168 33.071C78.1861 33.071 77.7738 33.3965 77.7738 33.874C77.7738 34.3948 78.5044 34.5612 79.3725 34.7637C80.6891 35.0748 82.3819 35.4727 82.3819 37.2957C82.3819 38.7642 81.3329 39.871 79.17 39.871C77.6364 39.8565 76.5295 39.3501 75.7772 38.5906ZM67.4002 36.5216V31.6893H69.1508V36.4565C69.1508 37.5778 69.8091 38.3446 71.0389 38.3446C72.2687 38.3446 72.9198 37.5706 72.9198 36.4565V31.6893H74.6704V36.5071C74.6704 38.5037 73.4913 39.8638 71.0462 39.8638C68.6083 39.871 67.4002 38.4965 67.4002 36.5216ZM92.5529 39.7263L88.7261 34.4889V39.7263H87.0189V31.6893H88.7695L92.495 36.7242V31.6893H94.2023V39.7191H92.5529V39.7263ZM83.6334 39.7263V31.6893H85.3406V39.7191H83.6334V39.7263ZM95.8733 39.7263V31.6893H101.567V33.194H97.5878V34.894H101.48V36.3986H97.5878V38.2144H101.559V39.7191L95.8733 39.7263ZM59.3415 39.7263V31.6893H63.5662C65.0998 31.6893 65.8811 32.6659 65.8811 33.7365C65.8811 34.7493 65.2517 35.422 64.4994 35.5812C65.353 35.7114 66.033 36.5433 66.033 37.5489C66.033 38.7497 65.23 39.7191 63.6964 39.7191L59.3415 39.7263ZM64.2896 37.3174C64.2896 36.811 63.9279 36.3769 63.2551 36.3769H61.056V38.2433H63.2551C63.8989 38.2433 64.2896 37.8889 64.2896 37.3174ZM64.1377 34.0331C64.1377 33.5484 63.7398 33.1578 63.2623 33.1578C63.2406 33.1578 63.2189 33.1578 63.1972 33.1578H61.056V34.9084H63.1972C63.776 34.9084 64.1377 34.5467 64.1377 34.0403V34.0331ZM67.2772 21.9161C67.2772 19.4493 69.1436 17.7565 71.5525 17.7565C72.9559 17.7203 74.2581 18.4871 74.9091 19.7242L73.4406 20.4476C73.0789 19.7459 72.3555 19.2901 71.5598 19.2757C70.1057 19.2757 69.0423 20.3969 69.0423 21.9016C69.0423 23.4063 70.0985 24.5276 71.5598 24.5276C72.3555 24.5203 73.0862 24.0718 73.4479 23.3629L74.9091 24.0935C74.3304 25.0918 73.3176 26.0612 71.5525 26.0612C69.1508 26.0684 67.2772 24.3901 67.2772 21.9161ZM75.6325 21.9161C75.6325 19.4493 77.4989 17.7565 79.9078 17.7565C81.3112 17.7203 82.6134 18.4871 83.2644 19.7242L81.7959 20.4476C81.427 19.7386 80.7036 19.2901 79.9078 19.2757C78.4538 19.2757 77.3904 20.3969 77.3904 21.9016C77.3904 23.4063 78.4466 24.5276 79.9078 24.5276C80.7036 24.5203 81.4342 24.0718 81.7959 23.3629L83.2644 24.0718C82.6857 25.0701 81.6729 26.0395 79.9078 26.0395C77.5061 26.0684 75.6325 24.3901 75.6325 21.9161ZM88.9142 25.931L87.3372 23.088H86.0857V25.931H84.3785V17.9012H88.1329C89.804 17.9012 90.8312 18.9935 90.8312 20.491C90.8312 21.9088 89.9414 22.6829 89.0806 22.8782L90.8891 25.9454L88.9142 25.931ZM64.8828 25.931L64.3908 24.571H60.9474L60.4411 25.931H58.4879L61.5985 17.9012H63.7398L66.836 25.931H64.8828ZM125.62 25.931V17.9012H128.788C131.306 17.9012 133.049 19.4999 133.049 21.9233C133.049 24.3467 131.298 25.931 128.788 25.931H125.62ZM118.516 25.931V17.9012H124.209V19.4059H120.223V21.1059H124.108V22.6105H120.223V24.4263H124.195V25.931H118.516ZM108.041 25.931V17.9012H109.748V25.931H108.041ZM99.3095 25.931V17.9012H102.478C104.995 17.9012 106.739 19.4999 106.739 21.9233C106.739 24.3467 104.988 25.931 102.478 25.931H99.3095ZM92.2057 25.931V17.9012H97.8989V19.4059H93.9129V21.1059H97.8048V22.6105H93.9129V24.4263H97.8844V25.931H92.2057ZM113.278 25.931V19.4059H110.927V17.9012H117.337V19.4059H115V25.931H113.278ZM131.313 21.9233C131.313 20.5054 130.438 19.4059 128.795 19.4059H127.341V24.4263H128.795C130.372 24.4263 131.298 23.2833 131.298 21.9233H131.313ZM105.003 21.9233C105.003 20.5054 104.127 19.4059 102.485 19.4059H101.031V24.4263H102.485C104.062 24.4263 104.988 23.2833 104.988 21.9233H105.003ZM62.6691 19.6084L61.4177 23.0663H63.9206L62.6691 19.6084ZM89.0806 20.4837C89.0806 19.811 88.567 19.3986 87.8797 19.3986H86.0857V21.5688H87.8797C88.567 21.5688 89.0806 21.1637 89.0806 20.4837Z" fill="white"/>
<path fill-rule="evenodd" clip-rule="evenodd" d="M17.9845 46.2515C19.1275 46.7579 19.6845 47.0906 19.9015 48.5085C20.2705 50.9825 17.9917 51.923 15.8432 51.923H10.8083V41.1298H15.8866C17.7096 41.1298 19.3734 41.9617 19.3734 43.9945C19.3734 45.0072 18.8454 45.7451 17.9845 46.2515ZM28.0687 46.2515C29.2117 46.7579 29.7687 47.0906 29.9858 48.5085C30.3547 50.9825 28.076 51.923 25.9275 51.923H20.8926V41.1298H25.9709C27.7938 41.1298 29.4577 41.9617 29.4577 43.9945C29.4577 45.0072 28.9296 45.7451 28.0687 46.2515ZM40.07 48.5157C39.853 47.0979 39.2887 46.7651 38.153 46.2587C39.0138 45.7523 39.5491 45.0145 39.5491 43.9945C39.5491 41.9617 37.8853 41.1298 36.0623 41.1298H30.9841V51.9302H36.0189C38.1602 51.9302 40.4462 50.9898 40.07 48.5157ZM41.4734 49.3404V49.3187C41.4734 47.9515 42.5947 46.8302 43.9619 46.8302C45.3291 46.8302 46.4504 47.9515 46.4504 49.3115V49.3332C46.4504 50.7004 45.3291 51.8217 43.9619 51.8217C42.6019 51.8289 41.4806 50.7076 41.4734 49.3404ZM46.2262 49.3332V49.3115C46.2189 48.0745 45.1989 47.0545 43.9619 47.0545C42.7177 47.0545 41.6977 48.0745 41.6977 49.3187V49.3404C41.7049 50.5774 42.7249 51.5974 43.9619 51.5974C45.2062 51.5974 46.2262 50.5774 46.2262 49.3332ZM42.9853 47.9804H44.1283C44.4032 47.9659 44.6781 48.0672 44.8879 48.2481C45.0253 48.3783 45.0976 48.5591 45.0976 48.74V48.7545C45.0976 49.1668 44.8228 49.4128 44.4394 49.5068L45.2279 50.534H44.7576L44.0198 49.5719H43.3687V50.534H42.9925L42.9853 47.9804ZM16.053 49.883H13.1015V47.4234H16.053C18.216 47.4234 18.0858 49.883 16.053 49.883ZM26.1373 49.883H23.193V47.4234H26.1373C28.3002 47.4234 28.17 49.883 26.1373 49.883ZM33.2772 47.4234V49.883H36.2215C38.2543 49.883 38.3845 47.4234 36.2215 47.4234H33.2772ZM44.0921 49.2319C44.4466 49.2319 44.6998 49.0655 44.6998 48.7762V48.7617C44.6998 48.494 44.4828 48.3204 44.1138 48.3204H43.3615V49.2319H44.0921ZM13.1015 43.1915H15.7492C17.3985 43.1915 17.4564 45.4919 15.8505 45.4919H13.1015V43.1915ZM33.2845 43.1915H35.9104C37.5598 43.1915 37.6177 45.4919 36.0117 45.4919H33.27L33.2845 43.1915ZM23.2002 43.1915H25.8407C27.49 43.1915 27.5479 45.4919 25.9419 45.4919H23.193L23.2002 43.1915ZM15.6841 36.2974H20.596L21.4713 39.2779H29.5011L30.3764 36.2974H35.2883L34.6445 34.1055H16.3279L15.6841 36.2974ZM21.6305 18.6391L19.2505 21.9234C18.0568 23.5655 18.4258 26.4808 20.0534 27.6527L24.4662 30.8357C25.2258 31.3855 25.2836 31.9281 24.9219 32.4996L25.5658 32.977L27.8011 29.8808C29.1828 27.9638 29.0598 25.3668 27.0126 23.8693L22.5564 20.6212C22.0283 20.2306 21.9705 19.6881 22.2598 19.0876L21.6305 18.6391ZM25.45 4.14209L21.7462 9.27103C20.01 11.6727 20.6394 15.7744 23.0122 17.5251L29.1032 21.9957C30.3402 22.9 30.4994 25.2149 29.6024 26.394L30.116 26.7847L34.3189 20.8744C36.207 18.2195 36.0985 14.2915 33.1326 12.1429L26.6147 7.40465C25.7032 6.74635 25.2475 5.61784 26.007 4.53996L25.45 4.14209Z" fill="#015A75"/>
</g>
<defs>
<clipPath id="clip0_13281_4485">
<rect width="150.08" height="56" fill="white"/>
</clipPath>
</defs>
</svg>
