<svg width="110" height="32" viewBox="0 0 110 32" fill="none" xmlns="http://www.w3.org/2000/svg">
<path d="M40.9012 17.9522L39.2838 19.6222V25.0496H35.2401V0H39.2838V14.7728L45.1714 8.99217H50.2503L43.8774 15.3509L50.6816 25.0496H45.786L40.9012 17.9522Z" fill="#181C20"/>
<path d="M61.055 25.8201C55.1246 25.8201 51.415 22.0305 51.415 17.0206C51.415 12.0107 55.1028 8.22113 60.3865 8.22113C61.5397 8.20433 62.6842 8.41842 63.7518 8.85062C64.8194 9.28287 65.7885 9.92437 66.6007 10.7368C67.413 11.5492 68.0519 12.5159 68.4796 13.579C68.9067 14.6421 69.1143 15.7799 69.0884 16.9242V17.9519H55.6852C56.0412 20.9065 58.0789 22.6086 61.1199 22.6086C63.1731 22.6318 65.1558 21.8644 66.6516 20.4676L68.8512 22.9404C66.7243 24.8628 63.9309 25.8945 61.055 25.8201ZM55.8471 15.2543H64.7753C64.2361 12.9741 62.6188 11.5075 60.3434 11.5075C58.068 11.5075 56.3968 12.942 55.8471 15.2543Z" fill="#181C20"/>
<path d="M80.5616 25.8201C74.6307 25.8201 70.9213 22.0305 70.9213 17.0206C70.9213 12.0107 74.6094 8.22113 79.8822 8.22113C81.0354 8.20433 82.1799 8.41842 83.2475 8.85062C84.3151 9.28287 85.2842 9.92437 86.0964 10.7368C86.9087 11.5492 87.5476 12.5159 87.9753 13.579C88.4024 14.6421 88.6095 15.7799 88.5841 16.9242V17.9519H75.1918C75.5473 20.9065 77.5855 22.6086 80.6265 22.6086C82.6797 22.6318 84.6624 21.8644 86.1582 20.4676L88.3578 22.9404C86.2303 24.8628 83.4375 25.8945 80.5616 25.8201ZM75.3532 15.2543H84.2819C83.7427 12.9741 82.1254 11.5075 79.85 11.5075C77.5746 11.5075 75.9034 12.942 75.3532 15.2543Z" fill="#181C20"/>
<path d="M95.119 22.6731V31.8901H91.0753V8.9922H94.8922V11.5293C95.6427 10.5335 96.6205 9.72902 97.7453 9.18181C98.87 8.63466 100.11 8.36055 101.362 8.38203C105.988 8.38203 109.45 12.1716 109.45 16.9888C109.45 21.7097 105.988 25.6598 101.362 25.6598C100.161 25.6671 98.9743 25.4018 97.8921 24.8842C96.81 24.3666 95.8612 23.6103 95.119 22.6731ZM100.165 22.1379C101.538 22.1379 102.855 21.5965 103.825 20.6329C104.796 19.6693 105.341 18.3623 105.341 16.9995C105.341 15.6367 104.796 14.3298 103.825 13.3661C102.855 12.4025 101.538 11.8612 100.165 11.8612C98.7927 11.8612 97.4759 12.4025 96.5053 13.3661C95.5348 14.3298 94.9893 15.6367 94.9893 16.9995C94.9893 18.3623 95.5348 19.6693 96.5053 20.6329C97.4759 21.5965 98.7927 22.1379 100.165 22.1379Z" fill="#181C20"/>
<path d="M22.9204 10.5659L19.9766 7.71838L23.2493 4.38379L26.1931 7.22595C27.0569 8.06031 27.747 9.05542 28.2234 10.1544C28.6999 11.2534 28.9536 12.4348 28.9701 13.6311C28.9866 14.8274 28.7656 16.0153 28.3197 17.1269C27.8738 18.2384 27.2117 19.2519 26.3713 20.1094C25.5309 20.9669 24.5285 21.6518 23.4215 22.1247C22.3145 22.5977 21.1245 22.8495 19.9194 22.866C17.4856 22.8991 15.1383 21.9711 13.3938 20.286L10.4501 17.4385L13.7228 14.1039L16.6665 16.9461C17.3011 17.5622 18.1062 17.9766 18.979 18.1368C19.8518 18.2969 20.7529 18.1955 21.5674 17.8453C22.1086 17.6157 22.5981 17.2808 23.007 16.8604C23.6275 16.2304 24.0451 15.4312 24.2064 14.5647C24.3677 13.6983 24.2654 12.8037 23.9128 11.9951C23.6814 11.4578 23.3438 10.9718 22.9204 10.5659Z" fill="#181C20"/>
<path d="M15.5771 6.35324C13.8326 4.66822 11.4853 3.74019 9.05153 3.77332C6.61778 3.80644 4.29696 4.79801 2.59963 6.52987C0.902303 8.26176 -0.0325033 10.5921 0.000863513 13.0082C0.0342303 15.4243 1.03303 17.7283 2.77755 19.4133L5.72138 22.2555L8.99407 18.9209L6.05023 16.0573C5.41796 15.4455 4.98188 14.6618 4.79674 13.8047C4.61161 12.9477 4.68568 12.0554 5.00967 11.2401C5.22426 10.6951 5.54901 10.1996 5.96397 9.78419C6.3741 9.36395 6.86312 9.02753 7.40353 8.79397C7.94539 8.56262 8.52825 8.44071 9.11806 8.43535C9.70679 8.42716 10.2914 8.53454 10.8382 8.75131C11.385 8.96807 11.8833 9.29001 12.3044 9.69855L12.307 9.69593L15.248 12.5354L18.5207 9.20082L15.5771 6.35324Z" fill="#181C20"/>
</svg>
