<svg width="1151" height="299" viewBox="0 0 1151 299" fill="none" xmlns="http://www.w3.org/2000/svg">
<g clip-path="url(#clip0_1_12)">
<path d="M1102.79 0H43.7186C20.086 0 0.927917 19.1238 0.927917 42.7143V256.286C0.927917 279.876 20.086 299 43.7186 299H1102.79C1126.42 299 1145.58 279.876 1145.58 256.286V42.7143C1145.58 19.1238 1126.42 0 1102.79 0Z" fill="white"/>
<path d="M1102.79 0H43.7186C20.086 0 0.927917 19.1238 0.927917 42.7143V256.286C0.927917 279.876 20.086 299 43.7186 299H1102.79C1126.42 299 1145.58 279.876 1145.58 256.286V42.7143C1145.58 19.1238 1126.42 0 1102.79 0Z" fill="url(#paint0_radial_1_12)"/>
<path d="M230.928 37.375H70.4628C52.7383 37.375 38.3698 51.7179 38.3698 69.4107V229.589C38.3698 247.282 52.7383 261.625 70.4628 261.625H230.928C248.652 261.625 263.021 247.282 263.021 229.589V69.4107C263.021 51.7179 248.652 37.375 230.928 37.375Z" fill="#FF4B55"/>
<path d="M187.23 173.878L225.579 151.937L216.779 147.531C214.311 146.295 212.899 143.627 213.264 140.887L216.127 119.393L199.891 124.122C196.305 125.168 192.583 122.958 191.776 119.307L190.221 112.27L174.977 130.134C172.864 132.611 168.838 130.719 169.388 127.509L175.899 89.605L165.932 92.3339C163.02 93.1316 159.945 91.8047 158.526 89.1378L148.03 69.4401V69.4107L148.023 69.4251L148.015 69.4107V69.4401L137.519 89.1378C136.097 91.8037 133.022 93.1305 130.111 92.3339L120.143 89.605L126.654 127.509C127.205 130.719 123.179 132.611 121.065 130.135L105.821 112.271L104.266 119.308C103.459 122.96 99.737 125.168 96.1506 124.123L79.9147 119.394L82.778 140.888C83.1433 143.627 81.7307 146.296 79.2627 147.532L70.4628 151.937L108.812 173.879C112.784 176.152 114.525 180.973 112.923 185.263L109.645 194.043L142.505 191.234C144.323 191.079 145.871 192.545 145.817 194.371L144.782 229.589H151.245L150.209 194.369C150.155 192.543 151.703 191.077 153.521 191.232L186.397 194.043L183.118 185.263C181.517 180.972 183.257 176.151 187.23 173.878Z" fill="white"/>
<path d="M318.25 92.5448V86.9828H357.181V92.5448H340.885V138.774H334.617V92.5448H318.25ZM363.519 138.774V86.9828H381.069C385.131 86.9828 388.451 87.678 391.028 89.0684C393.628 90.4357 395.554 92.3243 396.808 94.7344C398.061 97.1211 398.688 99.8441 398.688 102.903C398.688 105.938 398.061 108.638 396.808 111.002C395.577 113.365 393.663 115.219 391.063 116.563C388.485 117.884 385.178 118.544 381.138 118.544H367.001V112.914H380.929C383.715 112.914 385.955 112.508 387.65 111.697C389.344 110.886 390.575 109.739 391.341 108.256C392.107 106.749 392.49 104.965 392.49 102.903C392.49 100.817 392.095 98.9984 391.306 97.4457C390.54 95.893 389.31 94.688 387.615 93.8305C385.921 92.973 383.669 92.5448 380.86 92.5448H369.786V138.774H363.519ZM393.396 138.774L380.86 115.486H387.963L400.708 138.774H393.396ZM439.848 86.9828H446.115V121.256C446.115 124.801 445.279 127.965 443.608 130.745C441.96 133.502 439.627 135.681 436.609 137.28C433.591 138.879 430.051 139.678 425.988 139.678C421.926 139.678 418.374 138.879 415.333 137.28C412.315 135.681 409.971 133.502 408.299 130.745C406.628 127.965 405.792 124.801 405.792 121.256V86.9828H412.06V120.769C412.06 123.295 412.617 125.543 413.731 127.512C414.846 129.482 416.448 131.035 418.537 132.17C420.626 133.282 423.11 133.839 425.988 133.839C428.867 133.839 431.339 133.282 433.405 132.17C435.472 131.035 437.061 129.482 438.176 127.512C439.29 125.543 439.848 123.295 439.848 120.769V86.9828ZM471.744 139.678C468.03 139.678 464.814 139.087 462.098 137.906C459.382 136.701 457.246 135.032 455.691 132.9C454.159 130.745 453.289 128.254 453.08 125.427H459.556C459.742 127.373 460.404 128.984 461.541 130.258C462.702 131.533 464.176 132.483 465.963 133.109C467.751 133.734 469.678 134.047 471.744 134.047C474.135 134.047 476.282 133.654 478.186 132.865C480.113 132.077 481.633 130.977 482.747 129.563C483.862 128.15 484.419 126.493 484.419 124.593C484.419 122.878 483.932 121.487 482.957 120.422C481.981 119.355 480.705 118.487 479.126 117.815C477.571 117.142 475.876 116.552 474.042 116.042L467.704 114.235C463.642 113.076 460.427 111.419 458.059 109.264C455.714 107.086 454.542 104.247 454.542 100.748C454.542 97.851 455.32 95.3255 456.875 93.17C458.454 90.9921 460.578 89.3001 463.248 88.0955C465.94 86.8905 468.935 86.2877 472.232 86.2877C475.574 86.2877 478.546 86.8905 481.146 88.0955C483.746 89.2771 485.812 90.8992 487.344 92.9618C488.876 95.0008 489.689 97.3181 489.782 99.9135H483.653C483.351 97.3645 482.121 95.3831 479.962 93.9698C477.826 92.556 475.18 91.8496 472.022 91.8496C469.748 91.8496 467.751 92.2201 466.033 92.9618C464.315 93.7034 462.98 94.7227 462.029 96.0206C461.077 97.3181 460.601 98.8013 460.601 100.47C460.601 102.3 461.17 103.783 462.307 104.919C463.445 106.031 464.791 106.9 466.347 107.526C467.925 108.151 469.353 108.65 470.63 109.02L475.853 110.48C477.199 110.851 478.697 111.349 480.345 111.975C482.016 112.601 483.618 113.446 485.15 114.512C486.706 115.578 487.982 116.946 488.98 118.614C489.979 120.259 490.478 122.298 490.478 124.732C490.478 127.512 489.747 130.038 488.284 132.309C486.822 134.557 484.698 136.353 481.912 137.697C479.126 139.018 475.737 139.678 471.744 139.678ZM494.587 92.5448V86.9828H533.518V92.5448H517.221V138.774H510.953V92.5448H494.587ZM539.855 138.774V86.9828H571.194V92.5448H546.124V109.855H569.525V115.416H546.124V133.213H571.542V138.774H539.855ZM595.152 138.774H582.684V133.213H594.734C599.03 133.213 602.581 132.39 605.389 130.745C608.219 129.1 610.332 126.748 611.728 123.689C613.118 120.63 613.814 116.992 613.814 112.774C613.814 108.603 613.129 105.011 611.76 101.999C610.39 98.9637 608.337 96.6347 605.598 95.0126C602.881 93.367 599.495 92.5448 595.43 92.5448H582.405V86.9828H595.847C600.886 86.9828 605.191 88.0144 608.764 90.0764C612.364 92.139 615.114 95.105 617.018 98.9749C618.922 102.822 619.874 107.422 619.874 112.774C619.874 118.174 618.911 122.82 616.986 126.713C615.06 130.583 612.247 133.561 608.556 135.646C604.892 137.732 600.42 138.774 595.152 138.774ZM585.401 86.9828V138.774H579.132V86.9828H585.401ZM643.762 138.774V86.9828H661.937C665.537 86.9828 668.511 87.6086 670.854 88.8601C673.197 90.0882 674.94 91.7449 676.074 93.8305C677.24 95.916 677.818 98.222 677.818 100.748C677.818 102.972 677.422 104.814 676.636 106.275C675.844 107.711 674.812 108.858 673.533 109.716C672.26 110.55 670.875 111.176 669.393 111.593V112.079C670.993 112.172 672.592 112.728 674.197 113.748C675.796 114.767 677.133 116.215 678.203 118.093C679.294 119.969 679.84 122.276 679.84 125.01C679.84 127.605 679.246 129.945 678.064 132.031C676.877 134.093 675.01 135.739 672.453 136.967C669.923 138.172 666.607 138.774 662.499 138.774H643.762ZM650.031 133.213H662.499C666.607 133.213 669.517 132.414 671.239 130.815C672.977 129.216 673.849 127.281 673.849 125.01C673.849 123.249 673.394 121.627 672.491 120.144C671.608 118.66 670.34 117.467 668.693 116.563C667.045 115.66 665.098 115.208 662.847 115.208H650.031V133.213ZM650.031 109.785H661.729C663.611 109.785 665.318 109.414 666.847 108.673C668.383 107.908 669.586 106.854 670.469 105.51C671.378 104.143 671.827 102.555 671.827 100.748C671.827 98.4767 671.041 96.5418 669.463 94.9432C667.88 93.3441 665.377 92.5448 661.937 92.5448H650.031V109.785ZM682.343 86.9828H689.516L703.936 111.176H704.562L718.908 86.9828H726.15L707.349 117.432V138.774H701.08V117.432L682.343 86.9828Z" fill="white"/>
<path d="M341.999 221.673C337.588 221.673 333.653 220.596 330.194 218.441C326.735 216.285 324.019 213.227 322.046 209.264C320.073 205.278 319.086 200.563 319.086 195.117C319.086 189.648 320.073 184.921 322.046 180.936C324.019 176.95 326.735 173.879 330.194 171.724C333.653 169.569 337.588 168.491 341.999 168.491C344.599 168.491 347.048 168.874 349.346 169.639C351.668 170.403 353.757 171.515 355.614 172.975C357.471 174.412 359.015 176.185 360.245 178.294C361.499 180.379 362.358 182.743 362.822 185.384H356.554C356.183 183.577 355.533 181.99 354.604 180.623C353.699 179.255 352.585 178.108 351.261 177.182C349.961 176.231 348.522 175.524 346.944 175.061C345.365 174.574 343.717 174.331 341.999 174.331C338.865 174.331 336.021 175.131 333.467 176.729C330.914 178.305 328.883 180.646 327.374 183.751C325.888 186.833 325.145 190.622 325.145 195.117C325.145 199.589 325.888 203.366 327.374 206.449C328.883 209.531 330.914 211.871 333.467 213.47C336.021 215.046 338.865 215.834 341.999 215.834C343.717 215.834 345.365 215.602 346.944 215.139C348.522 214.652 349.961 213.945 351.261 213.018C352.585 212.068 353.699 210.909 354.604 209.542C355.533 208.175 356.183 206.588 356.554 204.78H362.822C362.358 207.445 361.499 209.821 360.245 211.906C359.015 213.992 357.471 215.764 355.614 217.224C353.757 218.661 351.668 219.762 349.346 220.526C347.048 221.291 344.599 221.673 341.999 221.673ZM371.806 220.978H365.19L384.272 169.186H390.749L409.761 220.978H403.215L387.685 177.39H387.267L371.806 220.978ZM374.244 200.748H400.778V206.309H374.244V200.748ZM455.726 169.186V220.978H449.528L421.322 180.31H420.765V220.978H414.497V169.186H420.556L448.971 209.925H449.458V169.186H455.726ZM467.078 220.978H460.461L479.544 169.186H486.021L505.033 220.978H498.487L482.957 177.39H482.539L467.078 220.978ZM469.515 200.748H496.049V206.309H469.515V200.748ZM525.787 220.978H513.321V215.417H525.369C529.664 215.417 533.216 214.594 536.026 212.949C538.855 211.303 540.968 208.951 542.364 205.892C543.755 202.834 544.45 199.195 544.45 194.978C544.45 190.807 543.765 187.215 542.396 184.203C541.027 181.167 538.973 178.838 536.234 177.216C533.517 175.571 530.128 174.748 526.065 174.748H513.042V169.186H526.483C531.521 169.186 535.828 170.218 539.401 172.28C543 174.343 545.75 177.309 547.654 181.179C549.558 185.025 550.51 189.625 550.51 194.978C550.51 200.378 549.547 205.024 547.622 208.917C545.691 212.787 542.883 215.764 539.192 217.85C535.523 219.935 531.057 220.978 525.787 220.978ZM516.037 169.186V220.978H509.769V169.186H516.037ZM563.952 169.186V220.978H557.683V169.186H563.952ZM575.302 220.978H568.686L587.77 169.186H594.248L613.257 220.978H606.71L591.183 177.39H590.766L575.302 220.978ZM577.741 200.748H604.277V206.309H577.741V200.748ZM659.225 169.186V220.978H653.026L624.822 180.31H624.26V220.978H617.996V169.186H624.051L652.47 209.925H652.957V169.186H659.225ZM685.13 220.978V169.186H703.305C706.905 169.186 709.879 169.812 712.222 171.064C714.564 172.292 716.308 173.949 717.447 176.034C718.608 178.12 719.186 180.426 719.186 182.951C719.186 185.176 718.79 187.018 718.004 188.478C717.212 189.915 716.18 191.062 714.901 191.919C713.628 192.754 712.243 193.379 710.761 193.796V194.283C712.361 194.376 713.965 194.932 715.565 195.951C717.164 196.971 718.501 198.419 719.571 200.296C720.662 202.173 721.208 204.479 721.208 207.213C721.208 209.809 720.614 212.149 719.432 214.235C718.244 216.297 716.378 217.943 713.821 219.171C711.291 220.376 707.975 220.978 703.867 220.978H685.13ZM691.399 215.417H703.867C707.975 215.417 710.884 214.617 712.607 213.018C714.345 211.419 715.217 209.484 715.217 207.213C715.217 205.453 714.762 203.83 713.858 202.347C712.976 200.864 711.713 199.671 710.061 198.767C708.413 197.863 706.466 197.411 704.214 197.411H691.399V215.417ZM691.399 191.989H703.096C704.979 191.989 706.686 191.618 708.215 190.876C709.75 190.112 710.954 189.057 711.836 187.713C712.746 186.346 713.195 184.759 713.195 182.951C713.195 180.68 712.409 178.745 710.831 177.146C709.248 175.548 706.744 174.748 703.305 174.748H691.399V191.989ZM762.228 169.186H768.491V203.459C768.491 207.005 767.657 210.168 765.988 212.949C764.335 215.706 762.003 217.885 758.986 219.484C755.97 221.082 752.429 221.882 748.369 221.882C744.304 221.882 740.752 221.082 737.709 219.484C734.692 217.885 732.349 215.706 730.675 212.949C729.006 210.168 728.172 207.005 728.172 203.459V169.186H734.435V202.973C734.435 205.498 734.997 207.746 736.109 209.716C737.222 211.686 738.827 213.238 740.913 214.374C743.004 215.486 745.486 216.042 748.369 216.042C751.247 216.042 753.718 215.486 755.783 214.374C757.847 213.238 759.441 211.686 760.554 209.716C761.666 207.746 762.228 205.498 762.228 202.973V169.186ZM794.123 221.882C790.406 221.882 787.191 221.291 784.474 220.109C781.762 218.904 779.622 217.236 778.071 215.104C776.536 212.949 775.664 210.458 775.456 207.63H781.933C782.12 209.577 782.783 211.187 783.917 212.462C785.078 213.736 786.554 214.687 788.341 215.313C790.127 215.938 792.058 216.251 794.123 216.251C796.514 216.251 798.659 215.857 800.563 215.069C802.489 214.281 804.013 213.181 805.126 211.767C806.238 210.353 806.794 208.697 806.794 206.796C806.794 205.081 806.308 203.691 805.334 202.625C804.361 201.559 803.082 200.69 801.504 200.018C799.948 199.346 798.252 198.755 796.418 198.246L790.085 196.438C786.019 195.28 782.805 193.622 780.435 191.467C778.093 189.289 776.921 186.451 776.921 182.951C776.921 180.055 777.697 177.529 779.253 175.374C780.831 173.196 782.955 171.504 785.624 170.299C788.319 169.094 791.315 168.491 794.61 168.491C797.953 168.491 800.921 169.094 803.526 170.299C806.126 171.481 808.19 173.103 809.72 175.165C811.255 177.204 812.068 179.522 812.159 182.117H806.03C805.73 179.568 804.5 177.587 802.339 176.173C800.205 174.76 797.557 174.053 794.401 174.053C792.128 174.053 790.127 174.424 788.41 175.165C786.693 175.907 785.356 176.926 784.404 178.224C783.457 179.522 782.981 181.005 782.981 182.674C782.981 184.504 783.548 185.987 784.688 187.123C785.822 188.235 787.17 189.104 788.726 189.729C790.304 190.355 791.732 190.853 793.005 191.224L798.231 192.684C799.579 193.055 801.077 193.553 802.724 194.179C804.393 194.804 805.997 195.65 807.527 196.716C809.084 197.782 810.362 199.149 811.357 200.817C812.357 202.463 812.855 204.502 812.855 206.935C812.855 209.716 812.127 212.242 810.662 214.513C809.201 216.761 807.078 218.557 804.291 219.901C801.504 221.222 798.113 221.882 794.123 221.882ZM826.088 169.186V220.978H819.819V169.186H826.088ZM876.511 169.186V220.978H870.312L842.107 180.31H841.551V220.978H835.282V169.186H841.343L869.756 209.925H870.242V169.186H876.511ZM885.7 220.978V169.186H917.045V174.748H891.969V192.058H915.37V197.62H891.969V215.417H917.392V220.978H885.7ZM941.419 221.882C937.702 221.882 934.487 221.291 931.77 220.109C929.058 218.904 926.919 217.236 925.362 215.104C923.832 212.949 922.96 210.458 922.752 207.63H929.229C929.416 209.577 930.074 211.187 931.214 212.462C932.374 213.736 933.851 214.687 935.637 215.313C937.424 215.938 939.349 216.251 941.419 216.251C943.81 216.251 945.955 215.857 947.859 215.069C949.785 214.281 951.304 213.181 952.422 211.767C953.534 210.353 954.091 208.697 954.091 206.796C954.091 205.081 953.604 203.691 952.63 202.625C951.657 201.559 950.379 200.69 948.801 200.018C947.244 199.346 945.549 198.755 943.714 198.246L937.376 196.438C933.316 195.28 930.101 193.622 927.732 191.467C925.389 189.289 924.217 186.451 924.217 182.951C924.217 180.055 924.993 177.529 926.549 175.374C928.127 173.196 930.251 171.504 932.92 170.299C935.616 169.094 938.606 168.491 941.906 168.491C945.249 168.491 948.218 169.094 950.817 170.299C953.417 171.481 955.487 173.103 957.016 175.165C958.552 177.204 959.359 179.522 959.456 182.117H953.326C953.026 179.568 951.796 177.587 949.635 176.173C947.501 174.76 944.853 174.053 941.697 174.053C939.419 174.053 937.424 174.424 935.707 175.165C933.99 175.907 932.652 176.926 931.7 178.224C930.748 179.522 930.272 181.005 930.272 182.674C930.272 184.504 930.845 185.987 931.979 187.123C933.118 188.235 934.466 189.104 936.022 189.729C937.6 190.355 939.028 190.853 940.301 191.224L945.527 192.684C946.875 193.055 948.367 193.553 950.02 194.179C951.689 194.804 953.294 195.65 954.823 196.716C956.38 197.782 957.653 199.149 958.653 200.817C959.653 202.463 960.151 204.502 960.151 206.935C960.151 209.716 959.418 212.242 957.958 214.513C956.492 216.761 954.369 218.557 951.587 219.901C948.801 221.222 945.409 221.882 941.419 221.882ZM983.552 221.882C979.835 221.882 976.62 221.291 973.908 220.109C971.191 218.904 969.051 217.236 967.5 215.104C965.965 212.949 965.093 210.458 964.885 207.63H971.362C971.549 209.577 972.213 211.187 973.347 212.462C974.507 213.736 975.983 214.687 977.77 215.313C979.556 215.938 981.487 216.251 983.552 216.251C985.943 216.251 988.088 215.857 989.992 215.069C991.918 214.281 993.442 213.181 994.555 211.767C995.667 210.353 996.229 208.697 996.229 206.796C996.229 205.081 995.737 203.691 994.763 202.625C993.79 201.559 992.511 200.69 990.933 200.018C989.377 199.346 987.681 198.755 985.852 198.246L979.514 196.438C975.449 195.28 972.234 193.622 969.864 191.467C967.522 189.289 966.35 186.451 966.35 182.951C966.35 180.055 967.126 177.529 968.682 175.374C970.26 173.196 972.384 171.504 975.053 170.299C977.749 169.094 980.744 168.491 984.039 168.491C987.382 168.491 990.35 169.094 992.955 170.299C995.555 171.481 997.619 173.103 999.149 175.165C1000.68 177.204 1001.5 179.522 1001.59 182.117H995.459C995.159 179.568 993.929 177.587 991.768 176.173C989.634 174.76 986.986 174.053 983.83 174.053C981.557 174.053 979.556 174.424 977.84 175.165C976.123 175.907 974.785 176.926 973.839 178.224C972.886 179.522 972.41 181.005 972.41 182.674C972.41 184.504 972.977 185.987 974.117 187.123C975.251 188.235 976.599 189.104 978.155 189.729C979.733 190.355 981.161 190.853 982.44 191.224L987.66 192.684C989.008 193.055 990.506 193.553 992.153 194.179C993.822 194.804 995.427 195.65 996.956 196.716C998.513 197.782 999.791 199.149 1000.79 200.817C1001.79 202.463 1002.28 204.502 1002.28 206.935C1002.28 209.716 1001.56 212.242 1000.09 214.513C998.63 216.761 996.507 218.557 993.72 219.901C990.933 221.222 987.542 221.882 983.552 221.882ZM1009.25 220.978V169.186H1040.59V174.748H1015.52V192.058H1038.92V197.62H1015.52V215.417H1040.94V220.978H1009.25ZM1064.96 221.882C1061.25 221.882 1058.03 221.291 1055.32 220.109C1052.6 218.904 1050.47 217.236 1048.91 215.104C1047.38 212.949 1046.51 210.458 1046.3 207.63H1052.78C1052.96 209.577 1053.62 211.187 1054.76 212.462C1055.92 213.736 1057.4 214.687 1059.18 215.313C1060.97 215.938 1062.9 216.251 1064.96 216.251C1067.36 216.251 1069.5 215.857 1071.41 215.069C1073.33 214.281 1074.85 213.181 1075.97 211.767C1077.08 210.353 1077.64 208.697 1077.64 206.796C1077.64 205.081 1077.15 203.691 1076.18 202.625C1075.2 201.559 1073.93 200.69 1072.35 200.018C1070.79 199.346 1069.1 198.755 1067.26 198.246L1060.92 196.438C1056.86 195.28 1053.65 193.622 1051.28 191.467C1048.94 189.289 1047.76 186.451 1047.76 182.951C1047.76 180.055 1048.54 177.529 1050.1 175.374C1051.67 173.196 1053.8 171.504 1056.47 170.299C1059.16 169.094 1062.15 168.491 1065.45 168.491C1068.8 168.491 1071.77 169.094 1074.36 170.299C1076.96 171.481 1079.03 173.103 1080.56 175.165C1082.09 177.204 1082.91 179.522 1083 182.117H1076.87C1076.57 179.568 1075.34 177.587 1073.18 176.173C1071.05 174.76 1068.4 174.053 1065.24 174.053C1062.97 174.053 1060.97 174.424 1059.25 175.165C1057.54 175.907 1056.2 176.926 1055.25 178.224C1054.3 179.522 1053.82 181.005 1053.82 182.674C1053.82 184.504 1054.39 185.987 1055.53 187.123C1056.67 188.235 1058.01 189.104 1059.56 189.729C1061.15 190.355 1062.57 190.853 1063.85 191.224L1069.07 192.684C1070.42 193.055 1071.91 193.553 1073.56 194.179C1075.24 194.804 1076.84 195.65 1078.37 196.716C1079.93 197.782 1081.2 199.149 1082.2 200.817C1083.2 202.463 1083.7 204.502 1083.7 206.935C1083.7 209.716 1082.97 212.242 1081.51 214.513C1080.04 216.761 1077.92 218.557 1075.13 219.901C1072.35 221.222 1068.96 221.882 1064.96 221.882Z" fill="white"/>
<path d="M769.058 137.097C765.595 137.097 762.508 136.46 759.796 135.186C757.101 133.911 754.961 132.155 753.377 129.917C751.792 127.68 750.967 125.115 750.902 122.224H761.193C761.307 124.167 762.124 125.744 763.643 126.953C765.162 128.161 766.967 128.766 769.058 128.766C770.725 128.766 772.195 128.398 773.469 127.663C774.759 126.912 775.764 125.874 776.483 124.551C777.218 123.212 777.585 121.676 777.585 119.945C777.585 118.181 777.21 116.629 776.458 115.289C775.723 113.95 774.702 112.904 773.395 112.153C772.089 111.401 770.594 111.018 768.911 111.001C767.441 111.001 766.012 111.303 764.623 111.908C763.251 112.512 762.181 113.337 761.413 114.383L751.98 112.692L754.357 86.2289H785.034V94.9029H763.104L761.806 107.473H762.1C762.982 106.231 764.313 105.202 766.094 104.385C767.874 103.569 769.867 103.16 772.072 103.16C775.094 103.16 777.79 103.871 780.158 105.292C782.527 106.713 784.397 108.665 785.769 111.148C787.141 113.615 787.819 116.457 787.803 119.675C787.819 123.057 787.035 126.062 785.451 128.692C783.883 131.306 781.686 133.364 778.86 134.867C776.05 136.354 772.783 137.097 769.058 137.097ZM814.879 137.513C810.664 137.497 807.038 136.46 803.999 134.401C800.977 132.343 798.65 129.362 797.016 125.458C795.399 121.554 794.599 116.857 794.615 111.369C794.615 105.896 795.423 101.233 797.041 97.3777C798.674 93.5226 801.002 90.5904 804.024 88.5812C807.062 86.5556 810.681 85.5428 814.879 85.5428C819.077 85.5428 822.687 86.5556 825.709 88.5812C828.747 90.6067 831.083 93.5471 832.717 97.4022C834.35 101.241 835.159 105.896 835.143 111.369C835.143 116.874 834.326 121.578 832.692 125.482C831.075 129.387 828.755 132.368 825.733 134.426C822.711 136.484 819.093 137.513 814.879 137.513ZM814.879 128.717C817.754 128.717 820.049 127.271 821.764 124.38C823.479 121.488 824.329 117.151 824.312 111.369C824.312 107.563 823.92 104.394 823.136 101.862C822.368 99.3297 821.274 97.4267 819.853 96.1525C818.448 94.8784 816.79 94.2413 814.879 94.2413C812.02 94.2413 809.733 95.6706 808.018 98.5293C806.303 101.388 805.437 105.668 805.421 111.369C805.421 115.224 805.804 118.442 806.572 121.023C807.356 123.588 808.459 125.515 809.88 126.806C811.301 128.08 812.967 128.717 814.879 128.717ZM852.129 129.55L851.86 132.245C851.647 134.401 851.239 136.55 850.634 138.689C850.046 140.846 849.426 142.798 848.772 144.546C848.135 146.294 847.621 147.666 847.229 148.662H840.466C840.711 147.698 841.046 146.351 841.47 144.619C841.895 142.904 842.295 140.976 842.671 138.836C843.047 136.697 843.284 134.516 843.382 132.294L843.504 129.55H852.129ZM879.229 137.513C875.015 137.497 871.388 136.46 868.35 134.401C865.328 132.343 863 129.362 861.367 125.458C859.75 121.554 858.949 116.857 858.965 111.369C858.965 105.896 859.774 101.233 861.391 97.3777C863.025 93.5226 865.353 90.5904 868.375 88.5812C871.413 86.5556 875.031 85.5428 879.229 85.5428C883.427 85.5428 887.038 86.5556 890.06 88.5812C893.098 90.6067 895.434 93.5471 897.067 97.4022C898.701 101.241 899.509 105.896 899.493 111.369C899.493 116.874 898.676 121.578 897.043 125.482C895.426 129.387 893.106 132.368 890.084 134.426C887.062 136.484 883.444 137.513 879.229 137.513ZM879.229 128.717C882.104 128.717 884.399 127.271 886.115 124.38C887.83 121.488 888.679 117.151 888.663 111.369C888.663 107.563 888.271 104.394 887.487 101.862C886.719 99.3297 885.625 97.4267 884.203 96.1525C882.799 94.8784 881.14 94.2413 879.229 94.2413C876.371 94.2413 874.084 95.6706 872.368 98.5293C870.653 101.388 869.788 105.668 869.771 111.369C869.771 115.224 870.155 118.442 870.923 121.023C871.707 123.588 872.81 125.515 874.231 126.806C875.652 128.08 877.318 128.717 879.229 128.717ZM926.734 137.513C922.52 137.497 918.893 136.46 915.855 134.401C912.833 132.343 910.505 129.362 908.872 125.458C907.254 121.554 906.454 116.857 906.47 111.369C906.47 105.896 907.279 101.233 908.896 97.3777C910.53 93.5226 912.857 90.5904 915.879 88.5812C918.918 86.5556 922.536 85.5428 926.734 85.5428C930.932 85.5428 934.542 86.5556 937.564 88.5812C940.603 90.6067 942.939 93.5471 944.572 97.4022C946.206 101.241 947.014 105.896 946.998 111.369C946.998 116.874 946.181 121.578 944.548 125.482C942.931 129.387 940.611 132.368 937.589 134.426C934.567 136.484 930.949 137.513 926.734 137.513ZM926.734 128.717C929.609 128.717 931.904 127.271 933.619 124.38C935.335 121.488 936.184 117.151 936.168 111.369C936.168 107.563 935.776 104.394 934.992 101.862C934.224 99.3297 933.129 97.4267 931.708 96.1525C930.303 94.8784 928.645 94.2413 926.734 94.2413C923.875 94.2413 921.589 95.6706 919.873 98.5293C918.158 101.388 917.292 105.668 917.276 111.369C917.276 115.224 917.66 118.442 918.428 121.023C919.212 123.588 920.314 125.515 921.736 126.806C923.157 128.08 924.823 128.717 926.734 128.717ZM974.239 137.513C970.025 137.497 966.398 136.46 963.36 134.401C960.338 132.343 958.01 129.362 956.376 125.458C954.759 121.554 953.959 116.857 953.975 111.369C953.975 105.896 954.784 101.233 956.401 97.3777C958.034 93.5226 960.362 90.5904 963.384 88.5812C966.423 86.5556 970.041 85.5428 974.239 85.5428C978.437 85.5428 982.047 86.5556 985.069 88.5812C988.108 90.6067 990.444 93.5471 992.077 97.4022C993.711 101.241 994.519 105.896 994.503 111.369C994.503 116.874 993.686 121.578 992.053 125.482C990.435 129.387 988.116 132.368 985.094 134.426C982.072 136.484 978.454 137.513 974.239 137.513ZM974.239 128.717C977.114 128.717 979.409 127.271 981.124 124.38C982.84 121.488 983.689 117.151 983.673 111.369C983.673 107.563 983.281 104.394 982.497 101.862C981.729 99.3297 980.634 97.4267 979.213 96.1525C977.808 94.8784 976.15 94.2413 974.239 94.2413C971.38 94.2413 969.093 95.6706 967.378 98.5293C965.663 101.388 964.797 105.668 964.781 111.369C964.781 115.224 965.165 118.442 965.933 121.023C966.717 123.588 967.819 125.515 969.24 126.806C970.662 128.08 972.328 128.717 974.239 128.717ZM1017.06 128.766V94.0698H1025.84V128.766H1017.06ZM1004.1 115.804V107.032H1038.8V115.804H1004.1Z" fill="white"/>
</g>
<defs>
<radialGradient id="paint0_radial_1_12" cx="0" cy="0" r="1" gradientUnits="userSpaceOnUse" gradientTransform="translate(954.294 2.06591e-05) rotate(158.514) scale(654.043 517.74)">
<stop stop-color="#323940"/>
<stop offset="1" stop-color="#181C20"/>
</radialGradient>
<clipPath id="clip0_1_12">
<rect width="1150" height="299" fill="white" transform="translate(0.5)"/>
</clipPath>
</defs>
</svg>
