<svg width="214" height="56" viewBox="0 0 214 56" fill="none" xmlns="http://www.w3.org/2000/svg">
<rect width="214" height="56" rx="8" fill="white"/>
<rect width="214" height="56" rx="8" fill="url(#paint0_radial_23202_103133)"/>
<rect x="7" y="7" width="42" height="42" rx="6" fill="#FF4B55"/>
<path d="M34.8303 32.5658L42 28.4564L40.3548 27.6312C39.8934 27.3998 39.6293 26.9 39.6976 26.3869L40.2329 22.3612L37.1975 23.247C36.527 23.4428 35.8311 23.029 35.6803 22.3452L35.3896 21.0271L32.5395 24.373C32.1445 24.8368 31.3918 24.4825 31.4948 23.8813L32.712 16.7822L30.8485 17.2933C30.3042 17.4427 29.7293 17.1942 29.4639 16.6947L27.5016 13.0055V13L27.5003 13.0027L27.4988 13V13.0055L25.5365 16.6947C25.2708 17.194 24.6959 17.4425 24.1516 17.2933L22.2881 16.7822L23.5053 23.8813C23.6084 24.4824 22.8556 24.8368 22.4604 24.3731L19.6104 21.0273L19.3197 22.3453C19.1689 23.0293 18.473 23.4428 17.8025 23.2472L14.7671 22.3614L15.3024 26.3871C15.3707 26.9 15.1066 27.3999 14.6452 27.6314L13 28.4564L20.1697 32.566C20.9123 32.9917 21.2378 33.8946 20.9382 34.6981L20.3253 36.3425L26.4687 35.8164C26.8087 35.7873 27.098 36.0619 27.088 36.4039L26.8945 43H28.1028L27.909 36.4036C27.899 36.0615 28.1883 35.787 28.5283 35.8161L34.6746 36.3425L34.0617 34.6981C33.7623 33.8944 34.0877 32.9914 34.8303 32.5658Z" fill="white"/>
<path d="M59.3255 16.3415V15.2999H66.6038V16.3415H63.5571V25H62.3853V16.3415H59.3255ZM67.7887 25V15.2999H71.0698C71.8293 15.2999 72.4499 15.4301 72.9317 15.6905C73.4177 15.9466 73.778 16.3003 74.0123 16.7517C74.2467 17.1987 74.3639 17.7087 74.3639 18.2816C74.3639 18.8501 74.2467 19.3557 74.0123 19.7984C73.7823 20.2411 73.4243 20.5883 72.9382 20.84C72.4564 21.0874 71.838 21.2111 71.0828 21.2111H68.4397V20.1565H71.0437C71.5645 20.1565 71.9833 20.0805 72.3002 19.9286C72.617 19.7767 72.847 19.5619 72.9902 19.2841C73.1335 19.002 73.2051 18.6678 73.2051 18.2816C73.2051 17.891 73.1313 17.5503 72.9837 17.2595C72.8405 16.9687 72.6105 16.743 72.2937 16.5824C71.9768 16.4218 71.5558 16.3415 71.0307 16.3415H68.9605V25H67.7887ZM73.3743 25L71.0307 20.6382H72.3588L74.7415 25H73.3743ZM82.0588 15.2999H83.2307V21.7189C83.2307 22.3829 83.0744 22.9754 82.7619 23.4962C82.4538 24.0126 82.0176 24.4206 81.4534 24.7201C80.8892 25.0195 80.2273 25.1693 79.4678 25.1693C78.7083 25.1693 78.0443 25.0195 77.4757 24.7201C76.9115 24.4206 76.4732 24.0126 76.1607 23.4962C75.8482 22.9754 75.6919 22.3829 75.6919 21.7189V15.2999H76.8638V21.6278C76.8638 22.1008 76.9679 22.5218 77.1762 22.8907C77.3846 23.2596 77.684 23.5504 78.0746 23.7631C78.4653 23.9714 78.9296 24.0756 79.4678 24.0756C80.006 24.0756 80.4682 23.9714 80.8545 23.7631C81.2407 23.5504 81.538 23.2596 81.7464 22.8907C81.9547 22.5218 82.0588 22.1008 82.0588 21.6278V15.2999ZM88.0221 25.1693C87.3277 25.1693 86.7266 25.0586 86.2188 24.8372C85.711 24.6116 85.3117 24.2991 85.0209 23.8998C84.7345 23.4962 84.5717 23.0296 84.5327 22.5001H85.7436C85.7783 22.8647 85.902 23.1663 86.1146 23.405C86.3316 23.6437 86.6072 23.8217 86.9414 23.9389C87.2756 24.056 87.6358 24.1146 88.0221 24.1146C88.4691 24.1146 88.8706 24.0408 89.2265 23.8933C89.5867 23.7457 89.871 23.5396 90.0793 23.2748C90.2876 23.0101 90.3918 22.6998 90.3918 22.3439C90.3918 22.0227 90.3006 21.7623 90.1184 21.5627C89.9361 21.363 89.6974 21.2003 89.4023 21.0744C89.1115 20.9485 88.7946 20.8379 88.4518 20.7424L87.2669 20.4039C86.5074 20.1869 85.9063 19.8765 85.4636 19.4729C85.0253 19.0649 84.8061 18.5333 84.8061 17.8779C84.8061 17.3354 84.9515 16.8624 85.2423 16.4587C85.5374 16.0508 85.9345 15.7339 86.4336 15.5082C86.9371 15.2826 87.497 15.1697 88.1132 15.1697C88.7382 15.1697 89.2937 15.2826 89.7798 15.5082C90.2659 15.7296 90.6522 16.0334 90.9386 16.4197C91.2251 16.8016 91.377 17.2356 91.3943 17.7217H90.2486C90.1921 17.2443 89.9621 16.8732 89.5585 16.6085C89.1592 16.3437 88.6644 16.2113 88.0742 16.2113C87.6489 16.2113 87.2756 16.2808 86.9544 16.4197C86.6333 16.5585 86.3837 16.7495 86.2058 16.9926C86.0278 17.2356 85.9389 17.5134 85.9389 17.8258C85.9389 18.1687 86.0452 18.4465 86.2579 18.6591C86.4705 18.8675 86.7223 19.0302 87.013 19.1474C87.3082 19.2646 87.5751 19.3579 87.8138 19.4273L88.7903 19.7008C89.042 19.7702 89.322 19.8635 89.6301 19.9807C89.9426 20.0979 90.2421 20.2563 90.5285 20.4559C90.8193 20.6556 91.058 20.9116 91.2446 21.2241C91.4312 21.5323 91.5245 21.9142 91.5245 22.3699C91.5245 22.8907 91.3878 23.3638 91.1144 23.7891C90.841 24.2101 90.4439 24.5465 89.9231 24.7982C89.4023 25.0456 88.7686 25.1693 88.0221 25.1693ZM92.2927 16.3415V15.2999H99.5711V16.3415H96.5243V25H95.3525V16.3415H92.2927ZM100.756 25V15.2999H106.615V16.3415H101.928V19.5836H106.303V20.6252H101.928V23.9584H106.68V25H100.756ZM111.094 25H108.763V23.9584H111.016C111.819 23.9584 112.483 23.8043 113.008 23.4962C113.537 23.188 113.932 22.7475 114.193 22.1746C114.453 21.6017 114.583 20.9203 114.583 20.1304C114.583 19.3492 114.455 18.6765 114.199 18.1123C113.943 17.5437 113.559 17.1076 113.047 16.8038C112.539 16.4956 111.906 16.3415 111.146 16.3415H108.711V15.2999H111.224C112.166 15.2999 112.971 15.4931 113.639 15.8793C114.312 16.2656 114.826 16.8211 115.182 17.5459C115.538 18.2664 115.716 19.1279 115.716 20.1304C115.716 21.1417 115.536 22.0119 115.176 22.741C114.816 23.4658 114.29 24.0235 113.6 24.4141C112.915 24.8047 112.079 25 111.094 25ZM109.271 15.2999V25H108.099V15.2999H109.271ZM120.182 25V15.2999H123.58C124.253 15.2999 124.809 15.4171 125.247 15.6515C125.685 15.8815 126.011 16.1918 126.223 16.5824C126.44 16.973 126.549 17.4049 126.549 17.8779C126.549 18.2946 126.475 18.6396 126.328 18.913C126.18 19.1821 125.987 19.397 125.748 19.5575C125.51 19.7138 125.251 19.831 124.974 19.9091V20.0002C125.273 20.0176 125.572 20.1218 125.872 20.3127C126.171 20.5037 126.421 20.7749 126.621 21.1265C126.825 21.478 126.927 21.9099 126.927 22.422C126.927 22.9081 126.816 23.3464 126.595 23.737C126.373 24.1233 126.024 24.4314 125.546 24.6615C125.073 24.8872 124.453 25 123.685 25H120.182ZM121.354 23.9584H123.685C124.453 23.9584 124.997 23.8086 125.319 23.5092C125.644 23.2097 125.807 22.8473 125.807 22.422C125.807 22.0921 125.722 21.7883 125.553 21.5106C125.388 21.2328 125.151 21.0093 124.843 20.84C124.535 20.6708 124.171 20.5861 123.75 20.5861H121.354V23.9584ZM121.354 19.5706H123.541C123.893 19.5706 124.212 19.5011 124.498 19.3622C124.785 19.219 125.01 19.0215 125.175 18.7698C125.345 18.5138 125.429 18.2165 125.429 17.8779C125.429 17.4526 125.282 17.0902 124.987 16.7907C124.691 16.4913 124.223 16.3415 123.58 16.3415H121.354V19.5706ZM127.395 15.2999H128.736L131.432 19.831H131.549L134.231 15.2999H135.585L132.07 21.0028V25H130.898V21.0028L127.395 15.2999Z" fill="white"/>
<path opacity="0.5" d="M144.82 25.1302C144.152 25.1302 143.555 25.0087 143.03 24.7656C142.505 24.5183 142.088 24.1776 141.78 23.7435C141.476 23.3095 141.318 22.8148 141.305 22.2592H143.297C143.314 22.6325 143.469 22.9363 143.759 23.1707C144.054 23.4007 144.408 23.5157 144.82 23.5157C145.142 23.5157 145.424 23.4441 145.667 23.3009C145.914 23.1576 146.107 22.9602 146.246 22.7084C146.385 22.4524 146.454 22.1551 146.454 21.8166C146.454 21.478 146.383 21.1786 146.24 20.9182C146.096 20.6578 145.899 20.4559 145.647 20.3127C145.4 20.1652 145.113 20.0914 144.788 20.0914C144.501 20.0914 144.226 20.15 143.961 20.2671C143.696 20.3843 143.49 20.5427 143.343 20.7424L141.513 20.4169L141.969 15.2999H147.9V16.9795H143.662L143.421 19.4078H143.473C143.642 19.1691 143.898 18.9716 144.241 18.8154C144.588 18.6591 144.975 18.581 145.4 18.581C145.981 18.581 146.5 18.7177 146.956 18.9912C147.416 19.2646 147.778 19.64 148.043 20.1174C148.308 20.5948 148.44 21.1438 148.44 21.7645C148.44 22.4198 148.288 23.0014 147.984 23.5092C147.681 24.0126 147.255 24.4097 146.708 24.7005C146.166 24.987 145.537 25.1302 144.82 25.1302ZM153.264 25.1302C152.439 25.1302 151.734 24.9349 151.148 24.5443C150.567 24.1493 150.12 23.583 149.807 22.8452C149.499 22.103 149.345 21.2068 149.345 20.1565C149.345 19.1105 149.501 18.2165 149.814 17.4743C150.126 16.7278 150.573 16.1571 151.155 15.7621C151.741 15.3672 152.444 15.1697 153.264 15.1697C154.089 15.1697 154.792 15.3672 155.373 15.7621C155.959 16.1571 156.406 16.7256 156.714 17.4678C157.027 18.2099 157.183 19.1062 157.183 20.1565C157.183 21.2068 157.029 22.103 156.721 22.8452C156.413 23.583 155.966 24.1493 155.38 24.5443C154.798 24.9349 154.093 25.1302 153.264 25.1302ZM153.264 23.4376C153.659 23.4376 153.991 23.3117 154.26 23.06C154.534 22.8039 154.74 22.4307 154.879 21.9402C155.022 21.4498 155.093 20.8552 155.093 20.1565C155.093 19.4534 155.022 18.8566 154.879 18.3662C154.74 17.8758 154.534 17.5025 154.26 17.2464C153.991 16.986 153.659 16.8558 153.264 16.8558C152.678 16.8558 152.227 17.1445 151.91 17.7217C151.593 18.2946 151.435 19.1062 151.435 20.1565C151.435 20.8552 151.504 21.4498 151.643 21.9402C151.786 22.4307 151.995 22.8039 152.268 23.06C152.541 23.3117 152.873 23.4376 153.264 23.4376ZM157.789 27.5845L158.361 23.5222H160.367L159.149 27.5845H157.789ZM165.49 25.1302C164.665 25.1302 163.96 24.9349 163.374 24.5443C162.793 24.1493 162.346 23.583 162.033 22.8452C161.725 22.103 161.571 21.2068 161.571 20.1565C161.571 19.1105 161.727 18.2165 162.04 17.4743C162.352 16.7278 162.799 16.1571 163.381 15.7621C163.967 15.3672 164.67 15.1697 165.49 15.1697C166.315 15.1697 167.018 15.3672 167.599 15.7621C168.185 16.1571 168.632 16.7256 168.94 17.4678C169.253 18.2099 169.409 19.1062 169.409 20.1565C169.409 21.2068 169.255 22.103 168.947 22.8452C168.639 23.583 168.192 24.1493 167.606 24.5443C167.024 24.9349 166.319 25.1302 165.49 25.1302ZM165.49 23.4376C165.885 23.4376 166.217 23.3117 166.486 23.06C166.76 22.8039 166.966 22.4307 167.105 21.9402C167.248 21.4498 167.319 20.8552 167.319 20.1565C167.319 19.4534 167.248 18.8566 167.105 18.3662C166.966 17.8758 166.76 17.5025 166.486 17.2464C166.217 16.986 165.885 16.8558 165.49 16.8558C164.904 16.8558 164.453 17.1445 164.136 17.7217C163.819 18.2946 163.661 19.1062 163.661 20.1565C163.661 20.8552 163.73 21.4498 163.869 21.9402C164.012 22.4307 164.221 22.8039 164.494 23.06C164.767 23.3117 165.099 23.4376 165.49 23.4376ZM174.227 25.1302C173.402 25.1302 172.697 24.9349 172.111 24.5443C171.529 24.1493 171.082 23.583 170.77 22.8452C170.462 22.103 170.308 21.2068 170.308 20.1565C170.308 19.1105 170.464 18.2165 170.776 17.4743C171.089 16.7278 171.536 16.1571 172.117 15.7621C172.703 15.3672 173.406 15.1697 174.227 15.1697C175.051 15.1697 175.754 15.3672 176.336 15.7621C176.922 16.1571 177.369 16.7256 177.677 17.4678C177.989 18.2099 178.146 19.1062 178.146 20.1565C178.146 21.2068 177.992 22.103 177.684 22.8452C177.375 23.583 176.928 24.1493 176.342 24.5443C175.761 24.9349 175.056 25.1302 174.227 25.1302ZM174.227 23.4376C174.622 23.4376 174.954 23.3117 175.223 23.06C175.496 22.8039 175.702 22.4307 175.841 21.9402C175.984 21.4498 176.056 20.8552 176.056 20.1565C176.056 19.4534 175.984 18.8566 175.841 18.3662C175.702 17.8758 175.496 17.5025 175.223 17.2464C174.954 16.986 174.622 16.8558 174.227 16.8558C173.641 16.8558 173.189 17.1445 172.873 17.7217C172.556 18.2946 172.397 19.1062 172.397 20.1565C172.397 20.8552 172.467 21.4498 172.606 21.9402C172.749 22.4307 172.957 22.8039 173.231 23.06C173.504 23.3117 173.836 23.4376 174.227 23.4376ZM182.963 25.1302C182.139 25.1302 181.433 24.9349 180.847 24.5443C180.266 24.1493 179.819 23.583 179.506 22.8452C179.198 22.103 179.044 21.2068 179.044 20.1565C179.044 19.1105 179.2 18.2165 179.513 17.4743C179.825 16.7278 180.272 16.1571 180.854 15.7621C181.44 15.3672 182.143 15.1697 182.963 15.1697C183.788 15.1697 184.491 15.3672 185.073 15.7621C185.658 16.1571 186.105 16.7256 186.414 17.4678C186.726 18.2099 186.882 19.1062 186.882 20.1565C186.882 21.2068 186.728 22.103 186.42 22.8452C186.112 23.583 185.665 24.1493 185.079 24.5443C184.497 24.9349 183.792 25.1302 182.963 25.1302ZM182.963 23.4376C183.358 23.4376 183.69 23.3117 183.959 23.06C184.233 22.8039 184.439 22.4307 184.578 21.9402C184.721 21.4498 184.793 20.8552 184.793 20.1565C184.793 19.4534 184.721 18.8566 184.578 18.3662C184.439 17.8758 184.233 17.5025 183.959 17.2464C183.69 16.986 183.358 16.8558 182.963 16.8558C182.377 16.8558 181.926 17.1445 181.609 17.7217C181.292 18.2946 181.134 19.1062 181.134 20.1565C181.134 20.8552 181.203 21.4498 181.342 21.9402C181.485 22.4307 181.694 22.8039 181.967 23.06C182.241 23.3117 182.573 23.4376 182.963 23.4376ZM190.795 24.4792V17.7673H192.488V24.4792H190.795ZM188.289 21.9728V20.2737H194.994V21.9728H188.289Z" fill="white"/>
<path d="M63.7654 41.5174C62.9408 41.5174 62.2051 41.3156 61.5585 40.912C60.9118 40.5083 60.404 39.9355 60.0351 39.1933C59.6662 38.4468 59.4817 37.5636 59.4817 36.5437C59.4817 35.5194 59.6662 34.634 60.0351 33.8876C60.404 33.1411 60.9118 32.566 61.5585 32.1624C62.2051 31.7587 62.9408 31.5569 63.7654 31.5569C64.2515 31.5569 64.7094 31.6285 65.139 31.7718C65.573 31.915 65.9637 32.1233 66.3109 32.3967C66.6581 32.6658 66.9467 32.9978 67.1767 33.3928C67.4111 33.7834 67.5717 34.2261 67.6585 34.7208H66.4866C66.4172 34.3823 66.2957 34.085 66.1221 33.829C65.9528 33.5729 65.7445 33.3581 65.4971 33.1845C65.2541 33.0065 64.985 32.8741 64.6898 32.7873C64.3947 32.6962 64.0866 32.6506 63.7654 32.6506C63.1795 32.6506 62.6478 32.8004 62.1704 33.0998C61.693 33.395 61.3133 33.8333 61.0312 34.4149C60.7534 34.9921 60.6145 35.7017 60.6145 36.5437C60.6145 37.3813 60.7534 38.0887 61.0312 38.666C61.3133 39.2432 61.693 39.6816 62.1704 39.981C62.6478 40.2761 63.1795 40.4237 63.7654 40.4237C64.0866 40.4237 64.3947 40.3803 64.6898 40.2935C64.985 40.2024 65.2541 40.07 65.4971 39.8964C65.7445 39.7184 65.9528 39.5014 66.1221 39.2454C66.2957 38.9893 66.4172 38.692 66.4866 38.3535H67.6585C67.5717 38.8526 67.4111 39.2975 67.1767 39.6881C66.9467 40.0787 66.6581 40.4107 66.3109 40.6841C65.9637 40.9532 65.573 41.1594 65.139 41.3026C64.7094 41.4458 64.2515 41.5174 63.7654 41.5174ZM69.3381 41.3872H68.1011L71.6687 31.6871H72.8796L76.4341 41.3872H75.2102L72.3067 33.2235H72.2286L69.3381 41.3872ZM69.7938 37.5983H74.7545V38.6399H69.7938V37.5983ZM85.0275 31.6871V41.3872H83.8687L78.5955 33.7704H78.4913V41.3872H77.3195V31.6871H78.4522L83.7645 39.317H83.8556V31.6871H85.0275ZM87.1498 41.3872H85.9128L89.4804 31.6871H90.6913L94.2458 41.3872H93.0219L90.1184 33.2235H90.0402L87.1498 41.3872ZM87.6055 37.5983H92.5662V38.6399H87.6055V37.5983ZM98.1258 41.3872H95.7952V40.3456H98.0477C98.8506 40.3456 99.5146 40.1915 100.04 39.8834C100.569 39.5752 100.964 39.1347 101.225 38.5618C101.485 37.9889 101.615 37.3075 101.615 36.5176C101.615 35.7364 101.487 35.0637 101.231 34.4995C100.975 33.931 100.591 33.4948 100.079 33.191C99.5711 32.8828 98.9374 32.7288 98.1779 32.7288H95.7431V31.6871H98.256C99.1978 31.6871 100.003 31.8803 100.671 32.2665C101.344 32.6528 101.858 33.2083 102.214 33.9331C102.57 34.6536 102.748 35.5151 102.748 36.5176C102.748 37.5289 102.568 38.3991 102.208 39.1282C101.847 39.853 101.322 40.4107 100.632 40.8013C99.9465 41.1919 99.111 41.3872 98.1258 41.3872ZM96.303 31.6871V41.3872H95.1312V31.6871H96.303ZM105.261 31.6871V41.3872H104.089V31.6871H105.261ZM107.383 41.3872H106.146L109.714 31.6871H110.925L114.479 41.3872H113.255L110.352 33.2235H110.274L107.383 41.3872ZM107.839 37.5983H112.8V38.6399H107.839V37.5983ZM123.073 31.6871V41.3872H121.914L116.641 33.7704H116.536V41.3872H115.365V31.6871H116.497L121.81 39.317H121.901V31.6871H123.073ZM127.916 41.3872V31.6871H131.314C131.987 31.6871 132.543 31.8043 132.981 32.0387C133.419 32.2687 133.745 32.579 133.957 32.9696C134.174 33.3602 134.283 33.7921 134.283 34.2651C134.283 34.6818 134.209 35.0268 134.062 35.3002C133.914 35.5693 133.721 35.7842 133.482 35.9447C133.244 36.101 132.985 36.2182 132.708 36.2963V36.3874C133.007 36.4048 133.306 36.509 133.606 36.6999C133.905 36.8909 134.155 37.1621 134.355 37.5137C134.559 37.8652 134.661 38.2971 134.661 38.8092C134.661 39.2953 134.55 39.7336 134.329 40.1242C134.107 40.5105 133.758 40.8187 133.28 41.0487C132.807 41.2744 132.187 41.3872 131.419 41.3872H127.916ZM129.088 40.3456H131.419C132.187 40.3456 132.731 40.1959 133.053 39.8964C133.378 39.5969 133.541 39.2345 133.541 38.8092C133.541 38.4794 133.456 38.1755 133.287 37.8978C133.122 37.62 132.885 37.3965 132.577 37.2272C132.269 37.058 131.905 36.9733 131.484 36.9733H129.088V40.3456ZM129.088 35.9578H131.275C131.627 35.9578 131.946 35.8883 132.232 35.7494C132.519 35.6062 132.744 35.4087 132.909 35.157C133.079 34.901 133.163 34.6037 133.163 34.2651C133.163 33.8398 133.016 33.4774 132.721 33.1779C132.425 32.8785 131.957 32.7288 131.314 32.7288H129.088V35.9578ZM142.33 31.6871H143.501V38.1061C143.501 38.7701 143.345 39.3626 143.033 39.8834C142.724 40.3998 142.288 40.8078 141.724 41.1073C141.16 41.4067 140.498 41.5565 139.738 41.5565C138.979 41.5565 138.315 41.4067 137.746 41.1073C137.182 40.8078 136.744 40.3998 136.431 39.8834C136.119 39.3626 135.963 38.7701 135.963 38.1061V31.6871H137.134V38.015C137.134 38.488 137.239 38.909 137.447 39.2779C137.655 39.6468 137.955 39.9376 138.345 40.1503C138.736 40.3586 139.2 40.4628 139.738 40.4628C140.277 40.4628 140.739 40.3586 141.125 40.1503C141.511 39.9376 141.809 39.6468 142.017 39.2779C142.225 38.909 142.33 38.488 142.33 38.015V31.6871ZM148.293 41.5565C147.598 41.5565 146.997 41.4458 146.489 41.2245C145.982 40.9988 145.582 40.6863 145.292 40.287C145.005 39.8834 144.842 39.4168 144.803 38.8873H146.014C146.049 39.2519 146.173 39.5535 146.385 39.7922C146.602 40.0309 146.878 40.2089 147.212 40.3261C147.546 40.4432 147.907 40.5018 148.293 40.5018C148.74 40.5018 149.141 40.428 149.497 40.2805C149.857 40.1329 150.142 39.9268 150.35 39.662C150.558 39.3973 150.662 39.087 150.662 38.7311C150.662 38.4099 150.571 38.1495 150.389 37.9499C150.207 37.7502 149.968 37.5875 149.673 37.4616C149.382 37.3357 149.065 37.2251 148.722 37.1296L147.538 36.7911C146.778 36.5741 146.177 36.2637 145.734 35.8601C145.296 35.4521 145.077 34.9205 145.077 34.2651C145.077 33.7226 145.222 33.2496 145.513 32.8459C145.808 32.438 146.205 32.1211 146.704 31.8955C147.208 31.6698 147.768 31.5569 148.384 31.5569C149.009 31.5569 149.564 31.6698 150.051 31.8955C150.537 32.1168 150.923 32.4206 151.209 32.8069C151.496 33.1888 151.648 33.6228 151.665 34.1089H150.519C150.463 33.6315 150.233 33.2604 149.829 32.9957C149.43 32.7309 148.935 32.5985 148.345 32.5985C147.92 32.5985 147.546 32.668 147.225 32.8069C146.904 32.9458 146.654 33.1367 146.476 33.3798C146.299 33.6228 146.21 33.9006 146.21 34.2131C146.21 34.5559 146.316 34.8337 146.529 35.0464C146.741 35.2547 146.993 35.4174 147.284 35.5346C147.579 35.6518 147.846 35.7451 148.084 35.8145L149.061 36.088C149.313 36.1574 149.593 36.2507 149.901 36.3679C150.213 36.4851 150.513 36.6435 150.799 36.8431C151.09 37.0428 151.329 37.2989 151.515 37.6113C151.702 37.9195 151.795 38.3014 151.795 38.7571C151.795 39.2779 151.659 39.751 151.385 40.1763C151.112 40.5973 150.715 40.9337 150.194 41.1854C149.673 41.4328 149.039 41.5565 148.293 41.5565ZM154.269 31.6871V41.3872H153.097V31.6871H154.269ZM163.696 31.6871V41.3872H162.537L157.264 33.7704H157.16V41.3872H155.988V31.6871H157.12L162.433 39.317H162.524V31.6871H163.696ZM165.414 41.3872V31.6871H171.273V32.7288H166.586V35.9708H170.961V37.0124H166.586V40.3456H171.339V41.3872H165.414ZM175.831 41.5565C175.136 41.5565 174.535 41.4458 174.027 41.2245C173.519 40.9988 173.12 40.6863 172.829 40.287C172.543 39.8834 172.38 39.4168 172.341 38.8873H173.552C173.587 39.2519 173.71 39.5535 173.923 39.7922C174.14 40.0309 174.416 40.2089 174.75 40.3261C175.084 40.4432 175.444 40.5018 175.831 40.5018C176.278 40.5018 176.679 40.428 177.035 40.2805C177.395 40.1329 177.679 39.9268 177.888 39.662C178.096 39.3973 178.2 39.087 178.2 38.7311C178.2 38.4099 178.109 38.1495 177.927 37.9499C177.745 37.7502 177.506 37.5875 177.211 37.4616C176.92 37.3357 176.603 37.2251 176.26 37.1296L175.075 36.7911C174.316 36.5741 173.715 36.2637 173.272 35.8601C172.834 35.4521 172.615 34.9205 172.615 34.2651C172.615 33.7226 172.76 33.2496 173.051 32.8459C173.346 32.438 173.743 32.1211 174.242 31.8955C174.746 31.6698 175.305 31.5569 175.922 31.5569C176.547 31.5569 177.102 31.6698 177.588 31.8955C178.074 32.1168 178.461 32.4206 178.747 32.8069C179.034 33.1888 179.185 33.6228 179.203 34.1089H178.057C178.001 33.6315 177.771 33.2604 177.367 32.9957C176.968 32.7309 176.473 32.5985 175.883 32.5985C175.457 32.5985 175.084 32.668 174.763 32.8069C174.442 32.9458 174.192 33.1367 174.014 33.3798C173.836 33.6228 173.747 33.9006 173.747 34.2131C173.747 34.5559 173.854 34.8337 174.066 35.0464C174.279 35.2547 174.531 35.4174 174.822 35.5346C175.117 35.6518 175.384 35.7451 175.622 35.8145L176.599 36.088C176.85 36.1574 177.13 36.2507 177.439 36.3679C177.751 36.4851 178.051 36.6435 178.337 36.8431C178.628 37.0428 178.866 37.2989 179.053 37.6113C179.24 37.9195 179.333 38.3014 179.333 38.7571C179.333 39.2779 179.196 39.751 178.923 40.1763C178.649 40.5973 178.252 40.9337 177.732 41.1854C177.211 41.4328 176.577 41.5565 175.831 41.5565ZM183.708 41.5565C183.013 41.5565 182.412 41.4458 181.905 41.2245C181.397 40.9988 180.997 40.6863 180.707 40.287C180.42 39.8834 180.257 39.4168 180.218 38.8873H181.429C181.464 39.2519 181.588 39.5535 181.8 39.7922C182.017 40.0309 182.293 40.2089 182.627 40.3261C182.961 40.4432 183.322 40.5018 183.708 40.5018C184.155 40.5018 184.556 40.428 184.912 40.2805C185.272 40.1329 185.557 39.9268 185.765 39.662C185.973 39.3973 186.078 39.087 186.078 38.7311C186.078 38.4099 185.986 38.1495 185.804 37.9499C185.622 37.7502 185.383 37.5875 185.088 37.4616C184.797 37.3357 184.48 37.2251 184.137 37.1296L182.953 36.7911C182.193 36.5741 181.592 36.2637 181.149 35.8601C180.711 35.4521 180.492 34.9205 180.492 34.2651C180.492 33.7226 180.637 33.2496 180.928 32.8459C181.223 32.438 181.62 32.1211 182.119 31.8955C182.623 31.6698 183.183 31.5569 183.799 31.5569C184.424 31.5569 184.979 31.6698 185.466 31.8955C185.952 32.1168 186.338 32.4206 186.624 32.8069C186.911 33.1888 187.063 33.6228 187.08 34.1089H185.934C185.878 33.6315 185.648 33.2604 185.244 32.9957C184.845 32.7309 184.35 32.5985 183.76 32.5985C183.335 32.5985 182.961 32.668 182.64 32.8069C182.319 32.9458 182.069 33.1367 181.891 33.3798C181.714 33.6228 181.625 33.9006 181.625 34.2131C181.625 34.5559 181.731 34.8337 181.944 35.0464C182.156 35.2547 182.408 35.4174 182.699 35.5346C182.994 35.6518 183.261 35.7451 183.499 35.8145L184.476 36.088C184.728 36.1574 185.008 36.2507 185.316 36.3679C185.628 36.4851 185.928 36.6435 186.214 36.8431C186.505 37.0428 186.744 37.2989 186.93 37.6113C187.117 37.9195 187.21 38.3014 187.21 38.7571C187.21 39.2779 187.074 39.751 186.8 40.1763C186.527 40.5973 186.13 40.9337 185.609 41.1854C185.088 41.4328 184.454 41.5565 183.708 41.5565ZM188.512 41.3872V31.6871H194.371V32.7288H189.684V35.9708H194.059V37.0124H189.684V40.3456H194.436V41.3872H188.512ZM198.928 41.5565C198.234 41.5565 197.633 41.4458 197.125 41.2245C196.617 40.9988 196.218 40.6863 195.927 40.287C195.641 39.8834 195.478 39.4168 195.439 38.8873H196.65C196.685 39.2519 196.808 39.5535 197.021 39.7922C197.238 40.0309 197.514 40.2089 197.848 40.3261C198.182 40.4432 198.542 40.5018 198.928 40.5018C199.376 40.5018 199.777 40.428 200.133 40.2805C200.493 40.1329 200.777 39.9268 200.986 39.662C201.194 39.3973 201.298 39.087 201.298 38.7311C201.298 38.4099 201.207 38.1495 201.025 37.9499C200.842 37.7502 200.604 37.5875 200.309 37.4616C200.018 37.3357 199.701 37.2251 199.358 37.1296L198.173 36.7911C197.414 36.5741 196.813 36.2637 196.37 35.8601C195.932 35.4521 195.712 34.9205 195.712 34.2651C195.712 33.7226 195.858 33.2496 196.149 32.8459C196.444 32.438 196.841 32.1211 197.34 31.8955C197.843 31.6698 198.403 31.5569 199.02 31.5569C199.645 31.5569 200.2 31.6698 200.686 31.8955C201.172 32.1168 201.559 32.4206 201.845 32.8069C202.131 33.1888 202.283 33.6228 202.301 34.1089H201.155C201.099 33.6315 200.868 33.2604 200.465 32.9957C200.066 32.7309 199.571 32.5985 198.981 32.5985C198.555 32.5985 198.182 32.668 197.861 32.8069C197.54 32.9458 197.29 33.1367 197.112 33.3798C196.934 33.6228 196.845 33.9006 196.845 34.2131C196.845 34.5559 196.952 34.8337 197.164 35.0464C197.377 35.2547 197.629 35.4174 197.919 35.5346C198.215 35.6518 198.481 35.7451 198.72 35.8145L199.697 36.088C199.948 36.1574 200.228 36.2507 200.536 36.3679C200.849 36.4851 201.148 36.6435 201.435 36.8431C201.726 37.0428 201.964 37.2989 202.151 37.6113C202.338 37.9195 202.431 38.3014 202.431 38.7571C202.431 39.2779 202.294 39.751 202.021 40.1763C201.747 40.5973 201.35 40.9337 200.829 41.1854C200.309 41.4328 199.675 41.5565 198.928 41.5565Z" fill="white"/>
<defs>
<radialGradient id="paint0_radial_23202_103133" cx="0" cy="0" r="1" gradientUnits="userSpaceOnUse" gradientTransform="translate(178.238 1.07668e-06) rotate(158.479) scale(122.307 96.9448)">
<stop stop-color="#323940"/>
<stop offset="1" stop-color="#181C20"/>
</radialGradient>
</defs>
</svg>
