<svg width="73" height="22" viewBox="0 0 73 22" fill="none" xmlns="http://www.w3.org/2000/svg">
<path d="M27.28 12.3415L26.2012 13.4576V17.085H23.5042V0.343018H26.2012V10.2165L30.1281 6.35298H33.5156L29.265 10.6029L33.8033 17.085H30.538L27.28 12.3415Z" fill="#303436"/>
<path d="M40.7223 17.6002C36.7666 17.6002 34.2926 15.0674 34.2926 11.719C34.2926 8.37061 36.7523 5.83784 40.2764 5.83784C41.0454 5.82659 41.8087 5.96969 42.5208 6.25857C43.233 6.54746 43.8792 6.9762 44.421 7.51918C44.9628 8.06216 45.389 8.70823 45.6741 9.41877C45.9592 10.1293 46.0974 10.8897 46.0804 11.6546V12.3415H37.1406C37.378 14.3162 38.7373 15.4538 40.7654 15.4538C42.135 15.4693 43.4574 14.9564 44.455 14.0228L45.9222 15.6756C44.5033 16.9604 42.6403 17.65 40.7223 17.6002ZM37.2485 10.5385H43.2036C42.844 9.01453 41.7651 8.03434 40.2476 8.03434C38.7301 8.03434 37.6153 8.99307 37.2485 10.5385Z" fill="#303436"/>
<path d="M53.7324 17.6002C49.7768 17.6002 47.3027 15.0674 47.3027 11.719C47.3027 8.37061 49.7624 5.83784 53.2793 5.83784C54.0483 5.82659 54.8117 5.96969 55.5238 6.25857C56.2359 6.54746 56.8822 6.9762 57.424 7.51918C57.9658 8.06216 58.3919 8.70823 58.677 9.41877C58.9622 10.1293 59.1003 10.8897 59.0833 11.6546V12.3415H50.1508C50.3881 14.3162 51.7474 15.4538 53.7756 15.4538C55.1451 15.4693 56.4675 14.9564 57.4651 14.0228L58.9323 15.6756C57.5135 16.9604 55.6504 17.65 53.7324 17.6002ZM50.2587 10.5385H56.2137C55.8541 9.01453 54.7753 8.03434 53.2578 8.03434C51.7402 8.03434 50.6255 8.99307 50.2587 10.5385Z" fill="#303436"/>
<path d="M63.4417 15.4967V21.6569H60.7447V6.35296H63.2907V8.04862C63.7912 7.38313 64.4434 6.8454 65.1936 6.4797C65.9438 6.114 66.7706 5.93078 67.6059 5.94514C70.6914 5.94514 73 8.4779 73 11.6975C73 14.8528 70.6914 17.4928 67.6059 17.4928C66.8048 17.4977 66.0132 17.3204 65.2915 16.9745C64.5698 16.6285 63.9371 16.123 63.4417 15.4967ZM66.8076 15.1389C67.7232 15.1389 68.6013 14.7771 69.2487 14.1331C69.8961 13.489 70.2598 12.6155 70.2598 11.7047C70.2598 10.7939 69.8961 9.92034 69.2487 9.27629C68.6013 8.63224 67.7232 8.27042 66.8076 8.27042C65.8921 8.27042 65.014 8.63224 64.3666 9.27629C63.7191 9.92034 63.3554 10.7939 63.3554 11.7047C63.3554 12.6155 63.7191 13.489 64.3666 14.1331C65.014 14.7771 65.8921 15.1389 66.8076 15.1389Z" fill="#303436"/>
<path d="M15.2872 7.40491L13.3238 5.50176L15.5066 3.27307L17.47 5.17264C18.0462 5.73028 18.5065 6.39538 18.8242 7.1299C19.142 7.86441 19.3112 8.654 19.3222 9.45358C19.3332 10.2532 19.1858 11.0471 18.8884 11.79C18.591 12.5329 18.1495 13.2102 17.5889 13.7834C17.0284 14.3565 16.3598 14.8142 15.6215 15.1303C14.8831 15.4464 14.0894 15.6148 13.2857 15.6257C11.6624 15.6479 10.0968 15.0276 8.93325 13.9014L6.96987 11.9983L9.15266 9.76958L11.116 11.6692C11.5393 12.0809 12.0763 12.3579 12.6584 12.465C13.2406 12.572 13.8416 12.5042 14.3848 12.2702C14.7458 12.1167 15.0723 11.8929 15.345 11.6119C15.7589 11.1908 16.0374 10.6567 16.145 10.0776C16.2525 9.49843 16.1844 8.90054 15.9491 8.3601C15.7948 8.00099 15.5697 7.67618 15.2872 7.40491Z" fill="#303436"/>
<path d="M10.3896 4.58934C9.22601 3.46314 7.6604 2.84289 6.03714 2.86503C4.41389 2.88717 2.86596 3.54989 1.73389 4.70739C0.601812 5.86489 -0.0216789 7.42237 0.00057594 9.03719C0.0228307 10.652 0.689009 12.1919 1.85256 13.3181L3.81601 15.2177L5.9988 12.989L4.03535 11.0751C3.61364 10.6662 3.32278 10.1424 3.1993 9.5696C3.07583 8.99678 3.12523 8.40044 3.34132 7.85546C3.48443 7.49126 3.70106 7.1601 3.97782 6.88242C4.25135 6.60156 4.57754 6.37673 4.93796 6.22061C5.29937 6.06599 5.68811 5.98451 6.0815 5.98093C6.47418 5.97546 6.86409 6.04722 7.22881 6.19211C7.59353 6.33699 7.92588 6.55214 8.20676 6.82518L8.20846 6.82344L10.17 8.72121L12.3528 6.49251L10.3896 4.58934Z" fill="#303436"/>
</svg>
